HIERARCHY
ROOT mixamorig:Hips
{
	OFFSET 0.000000 104.274902 0.000000
	CHANNELS 6 Xposition Yposition Zposition Xrotation Yrotation Zrotation
	JOINT mixamorig:Spine
	{
		OFFSET 0.000000 10.181549 0.131524
		CHANNELS 6 Xposition Yposition Zposition Xrotation Yrotation Zrotation
		JOINT mixamorig:Spine1
		{
			OFFSET 0.000000 9.893990 -1.470706
			CHANNELS 3 Xrotation Yrotation Zrotation
			JOINT mixamorig:Spine2
			{
				OFFSET 0.000000 9.220787 -1.370636
				CHANNELS 3 Xrotation Yrotation Zrotation
				JOINT mixamorig:Neck
				{
					OFFSET 0.000000 16.740372 -2.049023
					CHANNELS 6 Xposition Yposition Zposition Xrotation Yrotation Zrotation
					JOINT mixamorig:Head
					{
						OFFSET 0.000000 9.617859 1.684975
						CHANNELS 6 Xposition Yposition Zposition Xrotation Yrotation Zrotation
						JOINT mixamorig:HeadTop_End
						{
							OFFSET 0.000000 22.037369 7.501070
							CHANNELS 6 Xposition Yposition Zposition Xrotation Yrotation Zrotation
							End Site
							{
								OFFSET 0.000000 23.106567 -2.828246
							}
						}
					}
				}
				JOINT mixamorig:RightShoulder
				{
					OFFSET -4.570000 11.014862 -2.160841
					CHANNELS 6 Xposition Yposition Zposition Xrotation Yrotation Zrotation
					JOINT mixamorig:RightArm
					{
						OFFSET -10.592869 -0.524796 -2.232105
						CHANNELS 3 Xrotation Yrotation Zrotation
						JOINT mixamorig:RightForeArm
						{
							OFFSET -27.841499 0.000000 0.000000
							CHANNELS 3 Xrotation Yrotation Zrotation
							JOINT mixamorig:RightHand
							{
								OFFSET -28.328800 0.000000 0.000000
								CHANNELS 3 Xrotation Yrotation Zrotation
								JOINT mixamorig:RightHandThumb1
								{
									OFFSET -2.464798 -1.573990 2.681910
									CHANNELS 6 Xposition Yposition Zposition Xrotation Yrotation Zrotation
									JOINT mixamorig:RightHandThumb2
									{
										OFFSET -3.244789 -1.873367 1.873378
										CHANNELS 3 Xrotation Yrotation Zrotation
										JOINT mixamorig:RightHandThumb3
										{
											OFFSET -2.646255 -1.527817 1.527816
											CHANNELS 3 Xrotation Yrotation Zrotation
											JOINT mixamorig:RightHandThumb4
											{
												OFFSET -1.994583 -1.151581 1.151575
												CHANNELS 3 Xrotation Yrotation Zrotation
												End Site
												{
													OFFSET -1.860176 -1.142715 1.365483
												}
											}
										}
									}
								}
								JOINT mixamorig:RightHandIndex1
								{
									OFFSET -9.108299 -0.517883 2.259803
									CHANNELS 6 Xposition Yposition Zposition Xrotation Yrotation Zrotation
									JOINT mixamorig:RightHandIndex2
									{
										OFFSET -3.700005 0.000000 0.000000
										CHANNELS 3 Xrotation Yrotation Zrotation
										JOINT mixamorig:RightHandIndex3
										{
											OFFSET -2.849998 0.000000 0.000000
											CHANNELS 3 Xrotation Yrotation Zrotation
											JOINT mixamorig:RightHandIndex4
											{
												OFFSET -2.772202 0.000000 0.000000
												CHANNELS 3 Xrotation Yrotation Zrotation
												End Site
												{
													OFFSET -2.772202 0.000000 -0.000484
												}
											}
										}
									}
								}
								JOINT mixamorig:RightHandMiddle1
								{
									OFFSET -9.532501 0.000000 0.000000
									CHANNELS 6 Xposition Yposition Zposition Xrotation Yrotation Zrotation
									JOINT mixamorig:RightHandMiddle2
									{
										OFFSET -3.699997 0.000000 0.000000
										CHANNELS 3 Xrotation Yrotation Zrotation
										JOINT mixamorig:RightHandMiddle3
										{
											OFFSET -2.950005 0.000000 0.000000
											CHANNELS 3 Xrotation Yrotation Zrotation
											JOINT mixamorig:RightHandMiddle4
											{
												OFFSET -2.946602 0.000000 0.000000
												CHANNELS 3 Xrotation Yrotation Zrotation
												End Site
												{
													OFFSET -2.946594 0.000000 -0.000982
												}
											}
										}
									}
								}
								JOINT mixamorig:RightHandRing1
								{
									OFFSET -9.103600 -0.043106 -1.865100
									CHANNELS 6 Xposition Yposition Zposition Xrotation Yrotation Zrotation
									JOINT mixamorig:RightHandRing2
									{
										OFFSET -3.379303 0.000000 0.000000
										CHANNELS 3 Xrotation Yrotation Zrotation
										JOINT mixamorig:RightHandRing3
										{
											OFFSET -2.889702 0.000000 0.000000
											CHANNELS 3 Xrotation Yrotation Zrotation
											JOINT mixamorig:RightHandRing4
											{
												OFFSET -2.638794 0.000000 0.000000
												CHANNELS 3 Xrotation Yrotation Zrotation
												End Site
												{
													OFFSET -2.638794 0.000000 0.004219
												}
											}
										}
									}
								}
								JOINT mixamorig:RightHandPinky1
								{
									OFFSET -8.076698 -0.486725 -3.806297
									CHANNELS 6 Xposition Yposition Zposition Xrotation Yrotation Zrotation
									JOINT mixamorig:RightHandPinky2
									{
										OFFSET -3.600006 0.000000 0.000000
										CHANNELS 3 Xrotation Yrotation Zrotation
										JOINT mixamorig:RightHandPinky3
										{
											OFFSET -2.099998 0.000000 0.000000
											CHANNELS 3 Xrotation Yrotation Zrotation
											JOINT mixamorig:RightHandPinky4
											{
												OFFSET -2.115799 0.000000 0.000000
												CHANNELS 3 Xrotation Yrotation Zrotation
												End Site
												{
													OFFSET -2.115799 0.000000 0.000174
												}
											}
										}
									}
								}
							}
						}
					}
				}
				JOINT mixamorig:LeftShoulder
				{
					OFFSET 4.570400 11.014664 -2.160817
					CHANNELS 6 Xposition Yposition Zposition Xrotation Yrotation Zrotation
					JOINT mixamorig:LeftArm
					{
						OFFSET 10.592365 -0.524597 -2.232113
						CHANNELS 3 Xrotation Yrotation Zrotation
						JOINT mixamorig:LeftForeArm
						{
							OFFSET 27.841499 0.000000 0.000000
							CHANNELS 3 Xrotation Yrotation Zrotation
							JOINT mixamorig:LeftHand
							{
								OFFSET 28.328804 0.000000 0.000000
								CHANNELS 3 Xrotation Yrotation Zrotation
								JOINT mixamorig:LeftHandThumb1
								{
									OFFSET 2.466095 -1.576202 2.681697
									CHANNELS 6 Xposition Yposition Zposition Xrotation Yrotation Zrotation
									JOINT mixamorig:LeftHandThumb2
									{
										OFFSET 3.243317 -1.872528 1.872528
										CHANNELS 3 Xrotation Yrotation Zrotation
										JOINT mixamorig:LeftHandThumb3
										{
											OFFSET 2.647881 -1.528763 1.528755
											CHANNELS 3 Xrotation Yrotation Zrotation
											JOINT mixamorig:LeftHandThumb4
											{
												OFFSET 1.998924 -1.154068 1.154079
												CHANNELS 3 Xrotation Yrotation Zrotation
												End Site
												{
													OFFSET 1.884041 -1.149155 1.337651
												}
											}
										}
									}
								}
								JOINT mixamorig:LeftHandIndex1
								{
									OFFSET 9.109299 -0.518005 2.259899
									CHANNELS 6 Xposition Yposition Zposition Xrotation Yrotation Zrotation
									JOINT mixamorig:LeftHandIndex2
									{
										OFFSET 3.699997 0.000000 0.000000
										CHANNELS 3 Xrotation Yrotation Zrotation
										JOINT mixamorig:LeftHandIndex3
										{
											OFFSET 2.849998 0.000000 0.000000
											CHANNELS 3 Xrotation Yrotation Zrotation
											JOINT mixamorig:LeftHandIndex4
											{
												OFFSET 2.774902 0.000000 0.000000
												CHANNELS 3 Xrotation Yrotation Zrotation
												End Site
												{
													OFFSET 2.774902 0.000000 -0.000072
												}
											}
										}
									}
								}
								JOINT mixamorig:LeftHandMiddle1
								{
									OFFSET 9.533394 0.000000 0.000000
									CHANNELS 6 Xposition Yposition Zposition Xrotation Yrotation Zrotation
									JOINT mixamorig:LeftHandMiddle2
									{
										OFFSET 3.700005 0.000000 0.000000
										CHANNELS 3 Xrotation Yrotation Zrotation
										JOINT mixamorig:LeftHandMiddle3
										{
											OFFSET 2.949997 0.000000 0.000000
											CHANNELS 3 Xrotation Yrotation Zrotation
											JOINT mixamorig:LeftHandMiddle4
											{
												OFFSET 2.952904 0.000000 0.000000
												CHANNELS 3 Xrotation Yrotation Zrotation
												End Site
												{
													OFFSET 2.952896 0.000000 0.000165
												}
											}
										}
									}
								}
								JOINT mixamorig:LeftHandRing1
								{
									OFFSET 9.104500 -0.042999 -1.865100
									CHANNELS 6 Xposition Yposition Zposition Xrotation Yrotation Zrotation
									JOINT mixamorig:LeftHandRing2
									{
										OFFSET 3.149994 0.000000 0.000000
										CHANNELS 3 Xrotation Yrotation Zrotation
										JOINT mixamorig:LeftHandRing3
										{
											OFFSET 2.950005 0.000000 0.000000
											CHANNELS 3 Xrotation Yrotation Zrotation
											JOINT mixamorig:LeftHandRing4
											{
												OFFSET 2.644295 0.000000 0.000000
												CHANNELS 3 Xrotation Yrotation Zrotation
												End Site
												{
													OFFSET 2.644302 0.000000 0.000083
												}
											}
										}
									}
								}
								JOINT mixamorig:LeftHandPinky1
								{
									OFFSET 8.077797 -0.486893 -3.806301
									CHANNELS 6 Xposition Yposition Zposition Xrotation Yrotation Zrotation
									JOINT mixamorig:LeftHandPinky2
									{
										OFFSET 3.599998 0.000000 0.000000
										CHANNELS 3 Xrotation Yrotation Zrotation
										JOINT mixamorig:LeftHandPinky3
										{
											OFFSET 2.099998 0.000000 0.000000
											CHANNELS 3 Xrotation Yrotation Zrotation
											JOINT mixamorig:LeftHandPinky4
											{
												OFFSET 2.125504 0.000000 0.000000
												CHANNELS 3 Xrotation Yrotation Zrotation
												End Site
												{
													OFFSET 2.125504 0.000000 -0.001254
												}
											}
										}
									}
								}
							}
						}
					}
				}
			}
		}
	}
	JOINT mixamorig:RightUpLeg
	{
		OFFSET -8.207800 -6.751701 -1.599544
		CHANNELS 6 Xposition Yposition Zposition Xrotation Yrotation Zrotation
		JOINT mixamorig:RightLeg
		{
			OFFSET 0.000000 -44.370155 0.345934
			CHANNELS 3 Xrotation Yrotation Zrotation
			JOINT mixamorig:RightFoot
			{
				OFFSET 0.000000 -44.423664 -3.043536
				CHANNELS 3 Xrotation Yrotation Zrotation
				JOINT mixamorig:RightToeBase
				{
					OFFSET 0.000000 -8.728685 10.710592
					CHANNELS 3 Xrotation Yrotation Zrotation
					JOINT mixamorig:RightToe_End
					{
						OFFSET 0.000000 -0.000664 9.278099
						CHANNELS 3 Xrotation Yrotation Zrotation
						End Site
						{
							OFFSET 0.000000 -0.000664 9.278101
						}
					}
				}
			}
		}
	}
	JOINT mixamorig:LeftUpLeg
	{
		OFFSET 8.207800 -6.751701 -1.599544
		CHANNELS 6 Xposition Yposition Zposition Xrotation Yrotation Zrotation
		JOINT mixamorig:LeftLeg
		{
			OFFSET 0.000000 -44.370049 0.346940
			CHANNELS 3 Xrotation Yrotation Zrotation
			JOINT mixamorig:LeftFoot
			{
				OFFSET 0.000000 -44.423603 -3.044389
				CHANNELS 3 Xrotation Yrotation Zrotation
				JOINT mixamorig:LeftToeBase
				{
					OFFSET 0.000000 -8.728686 10.710592
					CHANNELS 3 Xrotation Yrotation Zrotation
					JOINT mixamorig:LeftToe_End
					{
						OFFSET 0.000000 -0.000680 9.278100
						CHANNELS 3 Xrotation Yrotation Zrotation
						End Site
						{
							OFFSET 0.000000 -0.000680 9.278100
						}
					}
				}
			}
		}
	}
}
MOTION
Frames: 4
Frame Time: 0.033333
1.493772 101.475510 1.826972 -0.383358 -0.119242 -1.655807 0.000000 10.181564 0.131520 -9.201496 1.264257 1.168935 7.246682 -0.041692 -1.878294 7.251812 0.041102 -1.863932 0.000001 16.740334 -2.049020 2.287008 -1.008078 3.029061 -0.000000 9.617873 1.684982 -5.069790 -2.335754 2.401237 0.000000 22.037354 7.501071 -0.000000 -0.000000 -0.000000 -4.569998 11.014849 -2.160838 1.709892 -7.765210 12.112731 26.986305 49.483891 49.499843 -0.000023 28.237867 0.000029 -44.984941 -0.074381 -10.368725 -2.464819 -1.573998 2.681907 6.252650 -20.774533 -12.651518 7.504747 -13.862918 0.513107 0.120858 -2.489915 -2.005647 -0.000001 -0.000001 0.000000 -9.108305 -0.517873 2.259804 0.531302 -2.670333 22.501609 0.231305 -1.781964 14.790594 0.058066 -0.898459 7.393509 0.000000 0.000000 0.000001 -9.532508 0.000002 0.000004 0.694388 -3.033788 25.778387 0.351368 -2.186400 18.256939 0.124006 -1.309916 10.814621 -0.000001 0.000001 -0.000002 -9.103601 -0.043086 -1.865099 0.927159 -3.474029 29.877409 0.535534 -2.680534 22.592502 0.240791 -1.817492 15.092628 -0.000001 -0.000001 -0.000002 -8.076720 -0.486732 -3.806299 1.161789 -3.852966 33.548130 0.696623 -3.038424 25.820803 0.357320 -2.204343 18.412233 -0.000001 -0.000000 -0.000001 4.570397 11.014637 -2.160815 0.892939 -0.363514 -11.998594 17.011868 -35.715489 -54.455309 0.000000 -20.409099 0.000005 -23.812338 -1.910444 7.750322 2.466082 -1.576230 2.681695 0.995175 26.049587 8.516733 5.879751 15.710905 1.896484 0.428049 5.431476 3.294690 0.000002 0.000002 -0.000001 9.109298 -0.518009 2.259895 0.318169 2.072868 -17.452332 0.139633 1.382519 -11.535874 0.035008 0.694784 -5.767101 -0.000000 0.000000 0.000000 9.533384 0.000001 -0.000001 0.550496 2.702495 -23.024824 0.318698 2.074479 -17.466373 0.141318 1.390780 -11.605881 0.000001 -0.000001 0.000001 9.104515 -0.042995 -1.865100 0.927555 3.456710 -30.034565 0.639807 2.903411 -24.850762 0.372979 2.239665 -18.909307 -0.000002 -0.000001 0.000000 8.077805 -0.486887 -3.806305 3.744381 7.360259 -36.030628 0.958805 -0.571298 -30.806861 0.626122 2.873718 -24.579373 -0.000000 -0.000004 0.000000 -8.207801 -6.751709 -1.599542 -8.571398 -3.695208 1.109398 22.706380 5.783173 -0.536534 -13.595351 -0.040244 -0.861365 -0.000125 -0.000001 0.000000 -0.000000 0.000000 -0.000000 8.207800 -6.751705 -1.599545 -8.273908 5.149212 1.448383 24.145289 -6.456984 -0.781504 -15.389927 -1.563239 3.479753 -0.011880 -0.000002 -0.000001 -0.000000 -0.000000 -0.000000 
1.482775 101.504860 1.736791 -0.584658 -0.253211 -1.579386 0.000000 10.181540 0.131522 -8.665100 1.098935 1.235035 7.160136 -0.064387 -1.933012 7.165598 0.014901 -1.920002 0.000000 16.740341 -2.049022 2.297908 -0.960557 2.970859 0.000001 9.617860 1.684977 -5.266164 -2.191951 2.428693 0.000000 22.037399 7.501073 0.000000 -0.000000 0.000000 -4.569998 11.014826 -2.160841 1.711229 -7.755226 12.112453 26.144627 49.451570 50.002323 -0.000006 27.830922 0.000017 -44.176123 0.035894 -10.380483 -2.464806 -1.573979 2.681905 6.290922 -20.830451 -12.649943 7.504750 -13.862920 0.513107 0.120857 -2.489912 -2.005646 -0.000002 0.000001 0.000002 -9.108316 -0.517878 2.259801 0.532427 -2.673049 22.525870 0.232100 -1.785002 14.816407 0.058265 -0.900009 7.406392 -0.000001 0.000002 0.000002 -9.532520 0.000021 -0.000001 0.703121 -3.051840 25.783536 0.351650 -2.187275 18.264542 0.118991 -1.310232 10.809410 -0.000001 0.000001 0.000004 -9.103624 -0.043094 -1.865106 0.947809 -3.509968 29.858957 0.534837 -2.678830 22.577342 0.234097 -1.815819 15.064853 0.000000 -0.000000 0.000001 -8.076726 -0.486733 -3.806300 1.195275 -3.903460 33.508850 0.694942 -3.034913 25.788645 0.355578 -2.199133 18.367185 0.000000 -0.000001 -0.000002 4.570401 11.014650 -2.160817 0.900095 -0.376480 -11.998563 16.683529 -35.918974 -54.587767 -0.000011 -19.442492 -0.000001 -27.525266 -1.511253 7.498692 2.466103 -1.576217 2.681693 1.067210 26.108871 8.501757 5.890867 15.715681 1.878149 0.433149 5.434038 3.286404 0.000001 0.000001 -0.000002 9.109318 -0.518013 2.259894 0.352009 2.177500 -18.364748 0.140149 1.385032 -11.557204 0.035131 0.696063 -5.777764 -0.000001 -0.000000 -0.000003 9.533403 -0.000018 -0.000002 0.603268 2.823354 -23.917308 0.318743 2.074703 -17.468296 0.141132 1.389783 -11.597379 -0.000000 -0.000001 -0.000001 9.104504 -0.043015 -1.865102 1.008801 3.593719 -30.903003 0.638666 2.900971 -24.828393 0.371716 2.235969 -18.876852 -0.000000 -0.000003 -0.000002 8.077800 -0.486890 -3.806303 3.904272 7.471166 -36.888755 0.956316 -0.575483 -30.766594 0.623558 2.868132 -24.528271 0.000000 -0.000001 -0.000000 -8.207799 -6.751727 -1.599542 -8.426722 -2.979778 1.090910 22.654602 5.171562 -0.404311 -13.522997 0.042614 -0.788517 -0.000079 -0.000000 -0.000004 -0.000000 0.000000 0.000000 8.207800 -6.751711 -1.599544 -8.026859 5.738128 1.308786 23.964820 -6.418192 -0.756323 -15.305667 -0.771130 3.573226 -0.014010 0.000000 0.000001 -0.000000 0.000000 0.000000 
1.469667 101.524742 1.620524 -0.836702 -0.178248 -1.656417 -0.000000 10.181548 0.131524 -7.567086 0.912550 1.361464 6.797944 -0.075015 -1.954508 6.803192 -0.004009 -1.943414 -0.000002 16.740358 -2.049021 2.338936 -0.940425 2.930108 0.000000 9.617793 1.684981 -5.508479 -2.208564 2.558438 0.000001 22.037384 7.501070 -0.000000 -0.000000 0.000000 -4.569998 11.014851 -2.160839 1.711332 -7.701030 12.110887 26.106419 49.359137 49.943665 -0.000024 28.006144 0.000050 -43.695442 0.091138 -10.289263 -2.464813 -1.573972 2.681909 6.307737 -20.855032 -12.649237 7.504750 -13.862920 0.513107 0.120862 -2.489913 -2.005648 -0.000003 -0.000003 0.000002 -9.108315 -0.517882 2.259799 0.532900 -2.674228 22.536269 0.232472 -1.786365 14.828001 0.058347 -0.900713 7.412184 0.000000 0.000000 0.000001 -9.532517 0.000022 -0.000002 0.725139 -3.097501 25.738726 0.350089 -2.182538 18.223450 0.104046 -1.307337 10.762943 -0.000001 0.000001 0.000004 -9.103602 -0.043103 -1.865104 1.003632 -3.607639 29.745966 0.529834 -2.666815 22.470376 0.214060 -1.807154 14.953208 -0.000002 -0.000000 -0.000004 -8.076710 -0.486716 -3.806302 1.287501 -4.043687 33.335722 0.686699 -3.017830 25.632640 0.349400 -2.180463 18.205603 -0.000001 0.000001 -0.000000 4.570395 11.014642 -2.160815 0.909959 -0.370381 -11.998526 15.728548 -35.116485 -55.023594 0.000002 -19.279177 0.000019 -32.087956 -0.799320 6.993387 2.466098 -1.576226 2.681701 1.101424 26.136989 8.494583 5.896375 15.718050 1.869036 0.435687 5.435304 3.282265 0.000001 0.000004 -0.000001 9.109304 -0.518018 2.259900 0.353376 2.181671 -18.401209 0.140396 1.386165 -11.566789 0.035170 0.696630 -5.782561 -0.000000 0.000001 0.000000 9.533395 0.000007 0.000001 0.630650 2.885106 -23.893904 0.317069 2.069356 -17.421827 0.139897 1.383811 -11.546880 0.000001 -0.000001 0.000002 9.104506 -0.042990 -1.865097 1.083896 3.719569 -30.806533 0.632782 2.888226 -24.711814 0.367057 2.222318 -18.757161 0.000001 0.000001 0.000000 8.077822 -0.486895 -3.806299 4.026992 7.651353 -36.735650 0.945953 -0.592944 -30.598428 0.614909 2.849122 -24.354819 -0.000000 0.000001 -0.000000 -8.207799 -6.751697 -1.599542 -8.180730 -2.184214 1.235793 22.526736 4.393227 -0.193063 -13.423084 0.030004 -0.743928 -0.000019 0.000000 0.000004 -0.000000 0.000000 0.000000 8.207800 -6.751699 -1.599545 -7.862098 5.848412 1.349242 23.989778 -6.152100 -0.739848 -15.277689 -0.534453 3.543178 -0.019601 -0.000000 -0.000000 0.000000 0.000000 -0.000000 
1.466355 101.558083 1.437021 -1.083632 0.045188 -1.810045 -0.000000 10.181547 0.131524 -5.922858 0.762556 1.604974 6.147219 -0.068799 -1.997317 6.152125 -0.009501 -1.988001 -0.000001 16.740364 -2.049023 2.432243 -0.947325 2.911382 0.000001 9.617863 1.684976 -5.718296 -2.363931 2.748414 0.000000 22.037399 7.501071 0.000001 -0.000000 -0.000000 -4.570002 11.014827 -2.160842 1.709873 -7.625911 12.108690 26.820076 49.141599 49.325065 -0.000014 28.832390 0.000035 -43.145520 -0.029966 -9.965928 -2.464806 -1.573978 2.681904 6.310511 -20.859080 -12.649133 7.504751 -13.862921 0.513105 0.120858 -2.489917 -2.005651 -0.000004 0.000003 0.000000 -9.108312 -0.517866 2.259799 0.532930 -2.674272 22.536764 0.232506 -1.786541 14.829454 0.058363 -0.900799 7.412942 0.000000 0.000001 0.000003 -9.532517 0.000025 -0.000003 0.759359 -3.168906 25.650791 0.346939 -2.172940 18.140523 0.080705 -1.301488 10.679960 -0.000001 0.000002 0.000001 -9.103606 -0.043098 -1.865103 1.091147 -3.762793 29.548959 0.521105 -2.645623 22.281947 0.182604 -1.791879 14.765889 -0.000001 0.000001 0.000001 -8.076698 -0.486718 -3.806301 1.432172 -4.267770 33.042645 0.672725 -2.988559 25.365779 0.339304 -2.149548 17.938372 0.000001 0.000000 -0.000000 4.570395 11.014655 -2.160818 0.922080 -0.307221 -11.998464 14.274308 -33.641328 -55.552019 0.000015 -19.857515 0.000001 -37.718125 0.227182 6.523794 2.466077 -1.576217 2.681698 1.109862 26.143924 8.492797 5.897993 15.718736 1.866393 0.436424 5.435674 3.281054 0.000003 0.000002 0.000001 9.109299 -0.518017 2.259898 0.345271 2.157131 -18.186765 0.140386 1.386203 -11.567129 0.035183 0.696652 -5.782693 -0.000000 -0.000001 -0.000000 9.533389 0.000002 -0.000002 0.660226 2.954142 -23.583516 0.313838 2.059064 -17.332377 0.137791 1.373394 -11.458640 0.000001 0.000001 0.000006 9.104490 -0.042995 -1.865102 1.184457 3.894030 -30.379097 0.622668 2.866170 -24.510306 0.359398 2.199617 -18.558329 0.000001 -0.000000 0.000002 8.077799 -0.486891 -3.806302 4.183064 7.927928 -36.214906 0.928585 -0.622473 -30.314760 0.600841 2.817868 -24.070085 -0.000000 0.000000 -0.000000 -8.207800 -6.751722 -1.599543 -7.898439 -1.914121 1.431352 22.287409 4.001104 -0.094150 -13.228018 0.021211 -0.727944 -0.003119 0.000001 -0.000000 -0.000000 0.000000 -0.000000 8.207799 -6.751710 -1.599545 -7.777549 5.586499 1.425958 24.057729 -5.846572 -0.675883 -15.200098 -0.483907 3.449866 -0.008172 -0.000000 -0.000000 0.000000 -0.000000 -0.000000 
